{"title":"Puss in Boots 2011 TS XviD DTRG","uid":6782749,"size":776945410,"categoryP":"video","categoryS":"movies","magnet":"?xt=urn:btih:28ef847849b37855d048090e8ad390e9fb3b7e98&amp;dn=Puss+in+Boots+2011+TS+XviD+DTRG&amp;tr=udp%3A%2F%2Ftracker.openbittorrent.com%3A80&amp;tr=udp%3A%2F%2Fopen.demonii.com%3A1337&amp;tr=udp%3A%2F%2Ftracker.coppersurfer.tk%3A6969&amp;tr=udp%3A%2F%2Fexodus.desync.com%3A6969","seeders":3,"leechers":0,"uploader":"SAFCukO09","files":5,"time":1319974476,"description":"Format : AVI\nFormat/Info : Audio Video Interleave\nFile size : 734 MiB\nDuration : 1h 20mn\nOverall bit rate : 1 269 Kbps\nWriting library : VirtualDub build 32842/release\n\nVideo\nID : 0\nFormat : MPEG-4 Visual\nFormat profile : Advanced Simple@L5\nFormat settings, BVOP : 2\nFormat settings, QPel : No\nFormat settings, GMC : No warppoints\nFormat settings, Matrix : Default (H.263)\nMuxing mode : Packed bitstream\nCodec ID : XVID\nCodec ID/Hint : XviD\nDuration : 1h 20mn\nBit rate : 1 131 Kbps\nWidth : 672 pixels\nHeight : 282 pixels\nDisplay aspect ratio : 2.40:1\nFrame rate : 25.000 fps\nColor space : YUV\nChroma subsampling : 4:2:0\nBit depth : 8 bits\nScan type : Progressive\nCompression mode : Lossy\nBits/(Pixel*Frame) : 0.239\nStream size : 654 MiB (89%)\nWriting library : XviD 64\n\nAudio\nID : 1\nFormat : MPEG Audio\nFormat version : Version 1\nFormat profile : Layer 3\nMode : Joint stereo\nMode extension : MS Stereo\nCodec ID : 55\nCodec ID/Hint : MP3\nDuration : 1h 20mn\nBit rate mode : Constant\nBit rate : 128 Kbps\nChannel(s) : 2 channels\nSampling rate : 44.1 KHz\nCompression mode : Lossy\nStream size : 74.0 MiB (10%)\nAlignment : Split accross interleaves\nInterleave, duration : 40 ms (1.00 video frame)\nInterleave, preload duration : 500 ms\nWriting library : LAME3.98r\nEncoding settings : -m j -V 4 -q 2 -lowpass 17 -b 128\n\n\n\n\n\n\n\n\n &lt;a href=&quot;\nhttp://www.imdb.com/title/tt0448694/&quot; rel=&quot;nofollow&quot; target=&quot;_NEW&quot;&gt;\nhttp://www.imdb.com/title/tt0448694/&lt;/a&gt;\n\n\n\n\nRatings: 6.7/10 from 440 users Metascore: 65/100\nReviews: 12 user | 24 critic | 23 from Metacritic.com\n\nA story about the events leading up to the sword fighting cat's meeting with Shrek and his friends.\nDirector:\nChris Miller\nWriters:\nCharles Perrault (character), Brian Lynch, and 3 more credits Ã‚Â»\nStars:\nAntonio Banderas, Salma Hayek and Zach Galifianakis\n\n\n\nvlcsnap2011103005h46m59.png\n\nvlcsnap2011103005h48m04.png\n\nvlcsnap2011103005h06m18.png\n\nvlcsnap2011103005h05m26.png\n\n\n\n\n\n\nSource Used\n\n\nReason for READNFO\n\nCheck out the sample included as it shows pretty much the flaws to the vid\n\n1 Bit on the dark side and 2 Bit of an autofocus issue\n\nKept the file size down as much as possible as dont believe the vid needs to be bigger or benefits from being bigger\n\nDenoised,deinterlaced,changed the saturation and tried to brighten the vid up as much as possible using the levels filter\n\nCheck that sample out ...........kids do moan ........they used to be oh so grateful\n\n\n\n\n\nEnjoy\n\n\n\n\n\nGreetz to IMAGiNE,Flawl3ss,BDK,Ez,CreWsaDe,TaRiQ786,ETRG,BHRG,iLLUMiNATi,ViSUALiSE,MiSTERE\n\n\n\n\n\n\n","torrent":{"xt":"urn:btih:28ef847849b37855d048090e8ad390e9fb3b7e98","amp;dn":"Puss+in+Boots+2011+TS+XviD+DTRG","amp;tr":["udp%3A%2F%2Ftracker.openbittorrent.com%3A80","udp%3A%2F%2Fopen.demonii.com%3A1337","udp%3A%2F%2Ftracker.coppersurfer.tk%3A6969","udp%3A%2F%2Fexodus.desync.com%3A6969"],"infoHash":"28ef847849b37855d048090e8ad390e9fb3b7e98","infoHashBuffer":{"type":"Buffer","data":[40,239,132,120,73,179,120,85,208,72,9,14,138,211,144,233,251,59,126,152]},"announce":[],"urlList":[]}}